<?xml version="1.0" encoding="utf-8"?>
<!-- Generator: Adobe Illustrator 26.0.3, SVG Export Plug-In . SVG Version: 6.00 Build 0)  -->
<svg version="1.1" id="Layer_1" xmlns="http://www.w3.org/2000/svg" xmlns:xlink="http://www.w3.org/1999/xlink" x="0px" y="0px"
	 viewBox="0 0 60 60" style="enable-background:new 0 0 60 60;" xml:space="preserve">
<style type="text/css">
	.st0{fill:url(#Border_00000163038918163732667730000017137411052703903658_);}
	.st1{fill:#1A1A1A;}
	.st2{fill:url(#Path_7_00000172409631068318840920000016877136752718070922_);}
	.st3{fill:#FD806D;}
</style>
<g id="Group_2211_00000034063917232045181590000010348968113863817402_" transform="translate(1 1.224)">
	
		<linearGradient id="Border_00000161613467690361221380000012328292206738502050_" gradientUnits="userSpaceOnUse" x1="-1884.4445" y1="1106.4858" x2="-1885.1852" y2="1105.7451" gradientTransform="matrix(81 0 0 -81 152699 89624.1328)">
		<stop  offset="0" style="stop-color:#FED200"/>
		<stop  offset="1" style="stop-color:#FD806D"/>
	</linearGradient>
	
		<circle id="Border_00000162325811443357521490000006986314429352876940_" style="fill:url(#Border_00000161613467690361221380000012328292206738502050_);" cx="29" cy="28.8" r="30"/>
	<circle id="Circle_00000173126193008092470500000011429205725827522688_" class="st1" cx="29" cy="28.8" r="28.1"/>
	<g id="Logo_00000177475223120121911350000007071266497021815208_" transform="translate(20.515 20.462)">
		
			<linearGradient id="Path_7_00000077315152198995405530000011016242553344194224_" gradientUnits="userSpaceOnUse" x1="-1899.8447" y1="1082.1866" x2="-1900.2825" y2="1081.7527" gradientTransform="matrix(37.9727 0 0 -37.6352 72157.4609 40730.0664)">
			<stop  offset="0" style="stop-color:#FED200"/>
			<stop  offset="1" style="stop-color:#FD806D"/>
		</linearGradient>
		
			<path id="Path_7_00000085937188945888420250000008964410918799381434_" style="fill:url(#Path_7_00000077315152198995405530000011016242553344194224_);" d="
			M22.3,21.9c-0.1,0-0.1,0-0.2,0c-0.4,0-0.8-0.1-1.2-0.2c-1.1-0.5-1.2-1.1-1.2-1.2c0-0.1-0.1-0.3-0.1-0.4c0-0.3,0-0.6,0-0.9
			c0.1-0.6,0.2-1.1,0.4-1.6c0.2-0.5,0.3-0.9,0.4-1.4s0.3-0.9,0.4-1.4c0.1-0.3,0.2-0.6,0.2-0.9c0.2-0.9,0.3-1.9,0.2-2.9
			c-0.1-0.7-0.2-1.3-0.5-1.9c-0.2-0.4-0.4-0.8-0.6-1.2c-0.3-0.4-0.6-0.8-0.9-1.1c-0.3-0.3-0.7-0.6-1-0.9c-0.3-0.2-0.7-0.4-1.1-0.6
			c-0.3-0.2-0.7-0.4-1-0.5c-0.6-0.3-1.3-0.7-1.8-1.2c-0.2-0.1-0.2-0.2,0-0.3c0.2-0.2,0.4-0.4,0.6-0.6l2.6-2.6c0.1-0.1,0.2-0.1,0.3,0
			l0,0c0.2,0.1,0.3,0.2,0.5,0.3c0.6,0.4,1.4,0.5,2.1,0.3c0.3-0.1,0.6-0.3,0.8-0.6c0.2-0.4,0.4-0.8,0.5-1.3c0.2-0.6,0.5-3,0.5-3.9
			c0-0.2-0.1-0.3-0.3-0.4c0,0,0,0,0,0h-0.1c-1,0.1-3.3,0.4-3.9,0.5c-0.4,0.1-0.9,0.3-1.2,0.6c-0.3,0.2-0.5,0.5-0.6,0.8
			c-0.2,0.7-0.1,1.5,0.3,2.1c0.1,0.2,0.2,0.3,0.3,0.5c0.1,0.1,0.1,0.2,0,0.3l0,0l-2.6,2.6l-0.6,0.6c-0.1,0.1-0.2,0.1-0.3,0
			c-0.5-0.6-0.8-1.2-1.1-1.8c-0.1-0.3-0.3-0.7-0.5-1c-0.2-0.4-0.4-0.7-0.6-1.1c-0.3-0.3-0.5-0.7-0.8-1C9.7-2.7,9.3-3.1,8.9-3.3
			C8.5-3.6,8.1-3.8,7.7-4C7.1-4.2,6.4-4.4,5.8-4.4c-1-0.1-1.9,0-2.9,0.2C2.6-4.2,2.3-4.1,2-4C1.6-3.9,1.1-3.7,0.6-3.6
			C0.2-3.4-0.3-3.3-0.7-3.1c-0.5,0.2-1.1,0.3-1.6,0.4c-0.3,0-0.6,0-0.9,0c-0.1,0-0.3,0-0.4-0.1c-0.1,0-0.6-0.1-1.2-1.2
			C-5-4.4-5.1-4.8-5.1-5.2c0-0.1,0-0.1,0-0.2c0-0.1-0.1-0.2-0.2-0.2c0,0,0,0,0,0c-0.1,0-0.2,0.1-0.2,0.2c-0.1,0.6-0.1,1.1,0,1.7
			C-5.5-3.3-5.4-3-5.2-2.6C-5.1-2.4-4.8-2-4.8-1.9c0.1,0.1,0.1,0.1,0.1,0.2c0.1,0.6,1.8,11.6,2.2,14.3c0.2-0.2,0.4-0.3,0.7-0.4
			c-0.5-2.7-2.3-14-2.1-13.9c0.8,0.3,1.7,0.3,2.5,0.1C-0.9-1.7-0.5-1.8,0-1.9s1-0.2,1.5-0.2c1-0.1,1.9,0,2.9,0.2
			c0.4,0.1,0.9,0.2,1.3,0.3C6-1.4,6.4-1.2,6.8-0.9c0.3,0.3,0.7,0.5,1,0.8C8,0.1,8.2,0.4,8.4,0.6c0.2,0.2,0.3,0.4,0.5,0.7
			c0.6,1.2,1.3,2.4,2,3.5l0,0c0.3,0.5,0.7,0.8,1.2,1.1l0,0c1.1,0.7,2.3,1.4,3.5,1.9c0.2,0.1,0.5,0.3,0.7,0.5
			c0.3,0.2,0.5,0.4,0.8,0.7c0.3,0.3,0.5,0.6,0.8,1c0.3,0.4,0.5,0.8,0.6,1.2c0.1,0.4,0.3,0.8,0.3,1.3c0.2,0.9,0.3,1.9,0.2,2.9
			c0,0.5-0.1,1-0.2,1.5c-0.1,0.5-0.2,0.9-0.3,1.3c-0.2,0.8-0.1,1.7,0.1,2.5c0.1,0.2-13.5-2-14.4-2.1H3.9c0.1-0.2,0.2-0.4,0.2-0.6
			c0.1-0.5,0.2-1.1,0.2-1.7c0-0.7,0-1.3-0.1-2c-0.8,0.7-1.6,1.4-2.5,1.9l-0.1-0.1l2.6-2.8l0,0l3.8-3.8C9,8.6,10,7.6,10.9,6.7
			c0-0.4-0.4-0.8-0.8-0.7c0,0,0,0-0.1,0C9.1,6.8,8.2,7.8,7.2,8.7l-3.7,3.8c-0.1,0.1-0.3,0.2-0.5,0.2c-0.8-0.1-1.7-0.2-2.5-0.2H0.4
			c-0.1,0-0.1,0.1,0,0.1C0.7,12.7,0.9,13,1,13.3v0.1c-0.8-0.4-1.6-0.6-2.5-0.5h-0.1c-0.3,0.1-0.5,0.3-0.7,0.5l0,0
			c-0.5,0.4-0.9,0.9-1.1,1.5C-3.6,15-3.4,15-3,15.1c0.6,0.1,0.9,0.5,0.7,0.5c-0.5,0-1.1,0.1-1.5,0.3c-0.2,0-0.3,0.1-0.3,0.3
			c-0.1,0.4-0.3,0.8-0.5,1.2c-0.1,0.1-0.1,0.3,0,0.4c0,0,0,0,0,0c0.2,0.1,0.3,0.1,0.5,0.1c0.4,0,0.8,0,1.2-0.1
			c0.4-0.1,0.9-0.2,1.3-0.2c0.1,0,0.1,0.1,0.2,0.2c0.1,0.2,0.2,0.4,0.4,0.4h0.1c0.4,0.1,6.4,1.1,11.6,2l7.8,1.2c0.1,0,0.2,0,0.3,0.1
			c0.1,0,0.5,0.3,0.7,0.4c0.3,0.2,0.7,0.3,1.1,0.3c0.6,0.1,1.1,0.1,1.7,0c0.1,0,0.2-0.1,0.2-0.2C22.5,21.9,22.4,21.9,22.3,21.9z"/>
		<path id="Path_8_00000084518223892290790900000008856130098313554094_" class="st3" d="M-1.1,19.8c0,0.4-0.1,0.8-0.1,1.2
			c0,0.2,0.1,0.3,0.2,0.4c0.1,0.2,0.3,0.2,0.5,0.1c0.4-0.2,0.7-0.4,1.1-0.5c0.2,0,0.3-0.2,0.3-0.3c0.3-1.7,0.5,0,0.7,0
			c0.5-0.3,1-0.6,1.5-1c-1.4-0.2-3-0.5-4-0.7C-1,19.2-1.1,19.5-1.1,19.8z"/>
	</g>
</g>
</svg>
