<svg id="Apollo_Logo" data-name="Apollo Logo"
  xmlns="http://www.w3.org/2000/svg" width="40" height="40" viewBox="0 0 40 40">
  <g id="Rectangle" fill="none" stroke="#707070" strokeWidth="1" opacity="0">
    <rect width="40" height="40" rx="15" stroke="none"/>
    <rect x="0.5" y="0.5" width="39" height="39" rx="14.5" fill="none"/>
  </g>
  <g id="Logo" transform="translate(7 7.096)">
    <path id="Path" d="M24.8,24.571c-.063-.016-.129-.014-.193-.025a4.349,4.349,0,0,1-1.1-.18c-.988-.487-1.078-.958-1.109-1.057a2.551,2.551,0,0,1-.08-.379,6,6,0,0,1,.044-.813,8.353,8.353,0,0,1,.384-1.436c.147-.4.266-.81.394-1.217s.265-.836.388-1.257a7.688,7.688,0,0,0,.18-.756,8.957,8.957,0,0,0,.175-2.554,6.425,6.425,0,0,0-.4-1.721,5.072,5.072,0,0,0-.559-1.1,8.329,8.329,0,0,0-.835-1,6.594,6.594,0,0,0-.911-.76,7.888,7.888,0,0,0-.971-.559c-.256-.13-.583-.316-.846-.432a8.159,8.159,0,0,1-1.618-.991c-.143-.1-.156-.172-.034-.295.177-.178.358-.351.535-.528q1.144-1.147,2.287-2.3a.188.188,0,0,1,.266-.018h0c.135.085.264.178.4.256a2.211,2.211,0,0,0,1.827.255,1.538,1.538,0,0,0,.734-.53,3.3,3.3,0,0,0,.528-1.112A35.11,35.11,0,0,0,24.782.546a.3.3,0,0,0-.329-.328A35.169,35.169,0,0,0,20.937.71a3.3,3.3,0,0,0-1.112.528,1.537,1.537,0,0,0-.53.734A2.207,2.207,0,0,0,19.55,3.8c.077.139.171.269.255.4a.188.188,0,0,1-.016.266h0q-1.15,1.141-2.3,2.286c-.177.177-.351.358-.528.534-.123.123-.2.109-.295-.034a8.145,8.145,0,0,1-.991-1.618c-.116-.263-.3-.59-.432-.846a7.888,7.888,0,0,0-.558-.971,6.594,6.594,0,0,0-.76-.911,8.359,8.359,0,0,0-1-.835,5.083,5.083,0,0,0-1.1-.559,6.425,6.425,0,0,0-1.722-.4,8.961,8.961,0,0,0-2.554.175,7.565,7.565,0,0,0-.756.18c-.421.123-.839.256-1.257.388s-.817.247-1.217.394a8.355,8.355,0,0,1-1.436.384,6,6,0,0,1-.813.044,2.532,2.532,0,0,1-.379-.08c-.1-.031-.569-.121-1.057-1.109a4.41,4.41,0,0,1-.18-1.1C.44.328.442.261.426.2.4.093.348,0,.221,0c-.091,0-.187.11-.2.226A6.484,6.484,0,0,0,.064,1.72a2.878,2.878,0,0,0,.309.954c.078.155.358.582.378.632a.791.791,0,0,1,.066.271c.081.5,1.563,10.291,1.94,12.7a2.582,2.582,0,0,1,.592-.367C2.979,13.6,1.344,3.473,1.515,3.541a4.22,4.22,0,0,0,2.262.111c.4-.068.792-.176,1.191-.248.429-.078.859-.158,1.293-.194A9.181,9.181,0,0,1,8.8,3.392a8.72,8.72,0,0,1,1.138.3,3.7,3.7,0,0,1,1.1.566c.295.231.594.46.863.717a6.3,6.3,0,0,1,.587.687c.148.189.282.391.413.592a28.45,28.45,0,0,0,1.745,3.114.228.228,0,0,1,.028.047,3.435,3.435,0,0,0,.956.937l.036.027A25.934,25.934,0,0,0,18.741,12.1c.2.133.4.264.593.412a6.3,6.3,0,0,1,.688.587c.258.27.487.569.717.863a3.684,3.684,0,0,1,.565,1.1,8.712,8.712,0,0,1,.3,1.137,9.184,9.184,0,0,1,.182,2.539c-.037.433-.117.864-.195,1.293-.072.4-.181.792-.248,1.19a4.213,4.213,0,0,0,.111,2.262c.074.188-11.987-1.775-12.789-1.9a.291.291,0,0,1-.054-.014l-.189-.033a4.9,4.9,0,0,0,.206-.5,5.846,5.846,0,0,0,.184-1.481,16.339,16.339,0,0,0-.1-1.755A14.72,14.72,0,0,1,6.5,19.517c-.04.024-.082-.02-.051-.054l2.337-2.5q.02-.023.044-.047,1.68-1.666,3.352-3.34,1.256-1.258,2.508-2.52a.712.712,0,0,0-.817-.7q-1.231,1.223-2.46,2.449-1.674,1.672-3.34,3.352a.477.477,0,0,1-.412.162,13.574,13.574,0,0,0-2.224-.142l-.139.009c-.067.028-.1.067-.023.124a1.038,1.038,0,0,1,.568.583c.018.05.009.105-.039.083a3.627,3.627,0,0,0-2.227-.447c-.056.019-.1.033-.133.043a2.58,2.58,0,0,0-.66.436.2.2,0,0,1-.022.023A3.49,3.49,0,0,0,1.759,18.36c-.06.116.075.125.425.2.51.109.761.471.65.475a4.288,4.288,0,0,0-1.378.261.362.362,0,0,0-.3.265,3.936,3.936,0,0,1-.438,1.016c-.1.19-.073.359.124.441a1.115,1.115,0,0,0,.438.089,8.756,8.756,0,0,0,1.019-.07c.4-.056.8-.139,1.2-.223.081-.017.132.073.163.183a.523.523,0,0,0,.373.365.388.388,0,0,1,.085.03c.363.128,5.676.987,10.369,1.732,3.271.5,6.651,1.01,6.938,1.057a.79.79,0,0,1,.271.066c.05.02.477.3.632.378a2.872,2.872,0,0,0,.953.31,6.486,6.486,0,0,0,1.5.039c.116-.009.228-.105.226-.2C25,24.65,24.905,24.6,24.8,24.571Z" transform="translate(0.001 0.001)" fill="rgba(255,255,255,0.85)"/>
    <path id="Path-2" data-name="Path" d="M249.21,1409.2a8.718,8.718,0,0,0-.07,1.019,1.114,1.114,0,0,0,.089.437c.082.2.251.223.441.124a3.916,3.916,0,0,1,1.016-.438.341.341,0,0,0,.265-.3c.28-1.509.472.029.588-.031a5.583,5.583,0,0,0,1.317-.9c-1.271-.2-2.687-.462-3.526-.6C249.284,1408.74,249.242,1408.972,249.21,1409.2Z" transform="translate(-245.247 -1386.502)" fill="rgba(255,255,255,0.85)"/>
  </g>
</svg>
